<?xml version="1.0" standalone="no"?><!DOCTYPE svg PUBLIC "-//W3C//DTD SVG 1.1//EN" "http://www.w3.org/Graphics/SVG/1.1/DTD/svg11.dtd"><svg t="1536118350795" class="icon" style="" viewBox="0 0 1024 1024" version="1.1" xmlns="http://www.w3.org/2000/svg" p-id="1701" xmlns:xlink="http://www.w3.org/1999/xlink" width="200" height="200"><defs><style type="text/css"></style></defs><path d="M606.831242 520.060515c0.001007-2.168803-0.104715-4.337605-0.299041-6.499359l368.741734-375.125303c27.44532-27.916536 27.44532-73.131134 0-101.072842-13.711584-13.920007-31.683244-20.917768-49.661953-20.917768-17.974681 0-35.94332 6.997761-49.66598 20.917768L518.067411 401.478167 154.187862 37.503972c-14.052914-14.013646-32.449474-21.05873-50.856103-21.05873-18.403608 0-36.810237 7.045084-50.849055 21.05873-28.106835 28.124958-28.106835 73.649673 0 101.759529L433.187086 520.033329 52.481698 900.822288c-28.106835 28.106835-28.106835 73.624502 0 101.713213 28.092738 28.11791 73.609399 28.11791 101.705158 0l367.220351-367.274722 354.538797 360.676689c27.437265 27.930632 71.889661 27.930632 99.327933 0 27.44532-27.90546 27.44532-73.120059 0-101.036594L606.831242 520.060515z" p-id="1702" fill="#1296db"></path></svg>